<svg width="36" height="36" viewBox="0 0 36 36" fill="none" xmlns="http://www.w3.org/2000/svg">
<path d="M34.2879 25.7277C34.2595 25.8217 31.6587 36.0072 21.4189 36C12.5719 36 8.37936 28.1711 8.37936 28.1711C7.73272 28.2072 7.11449 28.106 6.5389 27.8892C3.94521 26.9205 2.69455 23.8988 3.58991 21.3614L2.1616 20.2554C-3.35978 15.9759 12.2948 -3.62169 17.8304 0.809638C17.8588 0.831325 19.1521 1.89398 19.1521 1.89398C21.1418 0.66506 23.1101 0 24.709 0C25.8459 0 26.7982 0.33253 27.4377 1.04096C28.8731 2.6241 28.3615 5.64578 26.3931 8.70361C26.8124 9.10843 27.1677 9.66506 27.4164 10.2145C28.0417 10.706 28.4468 11.4506 28.6457 12.4771C28.866 13.6193 28.9157 15.2458 29.0579 15.947C29.5837 16.1928 29.3634 16.0771 29.9248 16.3663C30.5146 16.6626 31.2323 17.0313 32.0211 17.8048C33.4281 18.1663 33.9681 19.6843 33.1438 20.7253C33.1225 20.7542 33.023 20.8699 32.9164 20.9928C32.9378 21.0578 33.2078 21.506 33.4068 22.4096C33.9894 22.547 34.4513 22.9157 34.7 23.4434C35.1193 24.4771 34.2879 25.7277 34.2879 25.7277Z" fill="#684C46"/>
<path d="M10.4685 21.8883C10.6888 21.31 10.8025 20.8401 10.8025 20.8401C11.0583 21.6353 11.1863 22.4667 11.1365 23.3124C11.3497 23.0233 11.5771 22.4883 11.5771 22.4883C11.9679 24.845 10.2767 26.9992 8.0525 26.9992C6.07703 26.9992 4.47107 25.2859 4.47107 23.1679C4.47107 21.0498 6.07703 19.3365 8.0525 19.3365C8.56413 19.3365 9.05445 19.4522 9.49502 19.6618C9.49502 19.6546 10.2554 20.045 10.4685 21.8883ZM29.9532 30.2016C32.7317 27.9823 33.2149 25.3076 33.2575 25.2209C33.9397 24.3895 33.755 23.5654 32.8525 23.5654C32.5683 23.5654 32.348 23.645 32.348 23.645C32.348 23.645 32.348 22.4305 31.8008 21.4835C31.3744 21.9679 30.1948 22.9365 28.6386 23.6883C27.1819 24.3895 25.242 25.004 22.833 25.0908C22.1579 25.1197 21.7387 25.0112 21.5042 25.8064C21.426 26.0883 21.4616 26.5076 21.5184 26.6305C21.7103 27.2956 22.2077 27.5847 22.8543 27.7365C23.3518 27.8522 23.8776 27.8667 23.8776 27.8667C28.7594 28.004 32.682 24.1293 32.7246 24.1004C32.7672 24.0642 32.8099 24.0209 32.8099 24.0209C32.8099 24.0209 32.7672 24.1221 32.7601 24.1365C32.0566 25.7486 27.9707 28.6763 23.906 28.5895L23.8918 28.5968C22.9467 28.5895 21.8026 28.3438 21.2057 27.592C20.2606 26.4064 20.751 24.4257 22.2503 24.3823C22.2503 24.3823 22.5985 24.3751 22.7477 24.3679C26.4642 24.2522 29.7969 22.8642 32.1916 19.9582C32.5185 19.5462 32.1561 18.9751 31.4384 18.9534C31.4313 18.9534 31.4242 18.9534 31.4242 18.9462C30.5786 18.0281 29.8395 17.7028 29.1787 17.363C27.793 16.6474 27.928 17.2618 27.6012 13.7847C27.5159 12.845 27.3382 11.5655 26.5281 11.0811C26.315 10.951 26.0805 10.9004 25.846 10.9004C25.6115 10.9004 25.4907 10.951 25.448 10.9582C25.0075 11.0594 24.7516 11.3124 24.439 11.6088C22.9467 13.0112 21.7529 12.6281 19.9693 12.6136C18.2994 12.5992 16.8213 13.7847 16.5371 15.6064C16.4021 16.5606 16.4873 17.5293 16.6366 17.963C16.6366 17.963 16.1818 17.6594 15.9686 17.3847C16.2315 19.0474 17.7238 20.1389 17.7238 20.1389C17.4893 20.1968 17.1482 20.1679 17.1482 20.1679C17.1482 20.1679 18.0009 20.8546 18.74 21.0932C18.5481 21.2161 17.5746 22.192 17.07 23.5365C16.601 24.7944 16.7929 26.3052 16.7929 26.3052L17.1979 25.6835C17.1979 25.6835 16.935 27.0642 17.4467 28.3944C17.6172 27.9968 17.9938 27.2883 17.9938 27.2883C17.9938 27.2883 17.937 28.7703 18.6334 29.9847C18.6547 29.7028 18.7542 28.9944 18.7542 28.9944C18.7542 28.9944 19.1592 30.2594 20.083 31.1414C21.8453 32.7173 26.4429 33.0064 29.9532 30.2016Z" fill="#F5DCBA"/>
<path d="M4.12981 20.2834C4.11559 20.2762 2.77966 19.2858 2.59491 18.9533C1.47216 17.0304 3.42631 13.069 4.81198 10.8208C8.24419 5.27618 13.9574 0.888233 16.5511 1.51715L19.2159 2.91956C18.1784 3.54124 17.1836 4.30028 16.5795 4.80631L16.0111 5.29064C16.0111 5.29064 14.3554 6.42558 13.5311 7.14124C10.2268 10.0039 6.97932 14.4424 5.7713 18.722C5.7784 18.7147 4.78356 19.2135 4.12981 20.2834Z" fill="#0788BF"/>
<path d="M16.5512 1.51715C13.9575 0.888231 8.24422 5.27618 4.81201 10.828C4.81201 10.828 4.81201 10.828 4.81201 10.8352H4.82622L7.56204 13.0256C10.5679 8.17498 14.3412 5.67377 14.4478 5.60148L14.0143 2.6304L14.8244 2.23281L16.4517 2.76775L16.3238 2.21112L16.5512 1.51715Z" fill="#46B8E3"/>
<path d="M19.2161 2.91344L16.5797 4.80018L16.395 4.94476L14.0571 3.00018L14.0002 2.63151L14.8103 2.23392C14.853 2.24838 16.3737 2.74717 16.4376 2.76886L16.466 1.74235L16.5442 1.51103L17.2548 1.23633C17.2619 1.23633 19.209 2.91344 19.2161 2.91344Z" fill="#FFD14F"/>
<path d="M24.4104 1.0625C22.6695 1.0625 20.7153 1.99503 19.2088 2.9131C18.9957 3.03599 18.7896 3.17334 18.5835 3.30346L17.8018 2.63117L18.0861 3.63599C17.9795 3.70828 17.8729 3.7878 17.7734 3.86009L16.1533 3.35407L17.2263 4.26491C16.9847 4.45286 16.7644 4.63358 16.5796 4.78539L14.0072 2.62395L14.1422 3.59262L16.0111 5.26973C16.0111 5.26973 14.3554 6.40467 13.5311 7.12033C10.2268 9.98298 6.97938 14.4215 5.77136 18.7011L5.84242 18.6649C5.84953 18.6577 5.86374 18.6577 5.87085 18.6504C5.90638 18.6288 5.9348 18.6143 5.97033 18.5998C5.99165 18.5854 6.01297 18.5782 6.03429 18.5637C6.06982 18.5492 6.10535 18.5348 6.14088 18.5131C6.16219 18.5059 6.18351 18.4914 6.20483 18.4842C6.24036 18.4697 6.283 18.4553 6.31853 18.4408C6.33274 18.4336 6.35406 18.4264 6.36827 18.4191C6.42512 18.3974 6.47486 18.383 6.53171 18.3613C7.3489 18.1155 8.46454 17.9492 9.77205 18.5131C10.4258 16.8288 11.2075 15.1227 12.4439 13.4745C13.4459 12.1444 14.4052 10.9517 15.5635 10.2938C17.7521 8.20467 23.643 5.99262 25.5261 7.90828C25.9738 7.1637 26.3575 6.4625 26.6773 5.58057C27.4589 3.49142 27.4731 1.0625 24.4104 1.0625Z" fill="#122030"/>
<path d="M16.935 2.9364L16.5512 1.51953L16.3239 2.22796L16.4589 2.78459L16.935 2.9364Z" fill="#122030"/>
<path d="M32.3477 23.6388C32.3477 23.6388 32.3477 22.4243 31.8006 21.4773C31.3742 21.9617 30.1946 22.9303 28.6384 23.6822C27.1817 24.3834 25.2417 24.9978 22.8328 25.0846C22.1577 25.1135 21.7385 25.005 21.504 25.8002C21.4826 25.8725 21.4755 25.9448 21.4684 26.0243V26.0316C21.4684 26.0605 21.4613 26.0822 21.4613 26.1111C21.4613 26.1834 21.4613 26.2484 21.4613 26.3063C21.4613 26.3063 21.4613 26.3063 21.4613 26.3135C21.4613 26.3207 21.4613 26.3207 21.4613 26.3279C21.4613 26.3641 21.4684 26.4002 21.4684 26.4291C21.4684 26.4291 21.4684 26.4291 21.4684 26.4364C21.4684 26.4364 21.4684 26.4364 21.4684 26.4436C21.4826 26.5737 21.5111 26.6316 21.5111 26.6388V26.646C21.7029 27.3038 22.2003 27.593 22.847 27.7448C23.3444 27.8605 23.8703 27.8749 23.8703 27.8749C27.8567 27.9906 31.1966 25.4316 32.3193 24.4701C32.3477 24.1809 32.3548 23.993 32.3477 23.6388ZM20.907 1.99541C21.8593 1.54722 22.8754 1.193 23.856 1.0918C22.8825 1.31589 21.7029 1.82915 20.2959 2.69662C20.2604 2.7183 16.9774 4.97372 14.9664 6.99782C13.8721 8.10384 9.48057 13.4605 9.48768 13.4532C10.2907 11.9063 10.8165 11.1472 12.0885 9.52071C12.8062 8.60264 13.5736 7.70625 14.3624 6.88216C14.6253 6.60746 14.8954 6.33276 15.1583 6.07252C15.2578 5.98577 17.553 3.593 20.907 1.99541Z" fill="white"/>
<path d="M29.9532 30.2022C29.4771 30.5853 28.9797 30.9034 28.4752 31.1781C27.3027 30.7226 26.585 29.7612 26.585 29.7612C26.585 29.7612 27.594 29.5226 28.9371 28.8214C30.5714 27.9757 32.0992 26.754 33.2646 25.2214C33.2078 25.3154 32.7246 27.9829 29.9532 30.2022ZM26.7555 17.3202C26.187 16.9082 25.249 17.2335 25.043 17.913C25.3698 17.9275 25.718 18.1805 25.6967 18.5058C25.9312 18.2745 26.2581 18.1516 26.5779 18.1516C26.4286 17.9058 26.5068 17.472 26.7555 17.3202ZM20.8078 25.6118C20.9854 24.9323 21.4899 24.3973 22.2645 24.3757C22.2645 24.3757 22.6127 24.3684 22.7619 24.3612C26.4784 24.2455 29.8111 22.8576 32.2058 19.9516C32.5327 19.5395 32.1703 18.9684 31.4526 18.9467H31.4455C31.3247 19.0769 31.3034 19.3154 31.1044 19.6696C30.3796 20.9564 29.3705 21.5419 28.0346 22.2214C23.9273 24.3034 21.7955 23.3347 20.9428 24.607C20.6941 24.9829 20.687 25.4022 20.8078 25.6118ZM28.2407 16.8865C27.8498 16.5973 27.8356 16.0986 27.6224 13.7853C27.5514 13.0479 27.4306 12.101 26.99 11.4865C26.8976 11.407 26.7697 11.313 26.585 11.313C26.3078 11.2986 25.9881 11.5949 25.8104 11.7973C25.2988 12.5492 24.8156 13.0263 23.9486 13.4455C23.0746 13.8504 22.2503 13.9949 21.3834 13.966C20.7509 13.9443 20.2038 13.8431 19.6637 13.8359C18.6618 13.8214 17.7948 14.154 17.1624 14.9636C16.7289 15.5202 16.5513 16.113 16.5015 16.8142C16.5015 16.901 16.5086 16.9805 16.5086 17.0528C16.5157 17.1612 16.5228 17.2696 16.5371 17.3708C16.5797 17.7251 16.6436 17.913 16.6436 17.913V17.9202C16.6508 17.9347 16.6508 17.9564 16.6579 17.9708C16.6579 17.9708 16.2031 17.6672 15.9899 17.3925C16.2102 18.7805 17.2832 19.7708 17.6314 20.06C17.6527 20.0745 17.674 20.0889 17.6953 20.1106C17.6953 20.1106 17.6953 20.1106 17.7024 20.1178C17.7309 20.1395 17.7451 20.154 17.7451 20.154C17.5106 20.2118 17.1695 20.1829 17.1695 20.1829C17.1695 20.1829 18.0222 20.8696 18.7612 21.1082C19.7419 20.2624 20.8504 19.9443 21.7671 19.8431C22.3214 19.4961 22.9112 19.1492 23.5507 18.8239C23.3588 17.6022 24.4247 16.366 25.7678 16.2504C26.7839 16.1781 27.2742 16.6407 27.6295 17.1323C27.8214 17.0672 28.0417 17.0022 28.2833 16.9299C28.2549 16.9082 28.2478 16.8937 28.2407 16.8865ZM28.7239 25.1275C28.7168 25.1275 28.7026 25.1275 28.6883 25.1347C28.2833 25.2287 24.1121 26.8769 21.4686 26.0311C21.4544 26.1757 21.4615 26.4865 21.5184 26.6238C21.9163 26.7034 22.4208 26.754 23.0106 26.754C26.4855 26.7612 28.9868 25.1492 28.7239 25.1275ZM9.29602 24.8022C9.29602 24.8022 9.30313 24.8022 9.29602 24.8022C9.50921 24.5708 9.60158 24.2455 9.55184 23.9347C9.47367 23.4937 8.97625 23.3998 8.64938 23.0528C8.64227 23.0455 8.64227 23.0383 8.63517 23.0383C8.62806 23.0311 8.62095 23.0239 8.62095 23.0166C8.47173 22.8431 8.42198 22.6479 8.4362 22.4745C8.46462 22.019 8.86256 21.8889 9.06863 21.9757C9.06863 21.9757 9.31024 22.0335 9.5021 22.301C9.47367 22.2142 9.48078 22.0696 9.33155 21.8528C9.08995 21.4985 8.52858 21.1443 7.73981 21.3178C7.59058 21.3467 7.67585 21.3323 7.53373 21.3757C7.51241 21.3829 7.4911 21.3901 7.46978 21.3973C7.42714 21.419 7.38451 21.4335 7.34187 21.4552C7.32055 21.4696 7.19975 21.5202 7.05763 21.6287C6.15517 22.7998 7.66875 24.9251 9.29602 24.8022Z" fill="#EABE8D"/>
<path d="M22.4281 17.6036C22.5062 17.712 22.5204 17.7987 22.492 17.8349C22.4281 17.9072 22.2149 17.8132 21.8951 17.6831C21.0779 17.3722 20.4739 17.3289 19.408 17.7337C19.138 17.8349 18.9461 17.9216 18.8537 17.9072C18.7045 17.8855 18.8466 17.6036 19.1735 17.3361C19.8344 16.8011 20.7368 16.6349 21.5043 16.9313C21.8525 17.0542 22.2362 17.3072 22.4281 17.6036ZM22.2717 18.4566C22.0443 18.2831 21.6322 18.1674 21.2058 18.2397C21.1135 18.2542 21.0353 18.2831 20.95 18.3048C20.9216 18.312 20.8932 18.3264 20.8647 18.3337C20.6871 18.4132 20.5308 18.4927 20.3886 18.6373C20.2181 18.8036 20.1684 18.9626 20.2181 18.9987C20.2678 19.0349 20.3815 18.977 20.5663 18.9048C21.1774 18.6445 21.6109 18.6373 22.023 18.6662C22.222 18.6807 22.357 18.6951 22.3854 18.6373C22.4067 18.6011 22.3641 18.5289 22.2717 18.4566ZM9.09007 21.6445C9.18956 21.724 9.26772 21.8108 9.32457 21.8975C9.50933 22.1722 9.45248 22.324 9.53065 22.4036C9.55907 22.4325 9.60171 22.4397 9.63724 22.4252C9.74383 22.3819 9.79357 22.2084 9.80778 22.0855C9.8362 21.7963 9.68698 21.471 9.48801 21.2397C9.36721 21.0951 9.20377 20.9578 9.01191 20.8493C8.82004 20.7409 8.59976 20.6614 8.35105 20.618C7.93179 20.5529 7.51254 20.6397 7.39884 20.6686C7.34199 20.6831 7.26383 20.7048 7.19987 20.7264C6.51059 21.0011 6.0558 21.4999 5.85683 22.165C5.78577 22.418 5.75024 22.6638 5.75024 22.8879C5.75024 23.0831 5.77156 23.2638 5.80709 23.4228C5.86394 23.6903 5.98474 24.0011 6.1695 24.1963C6.404 24.4493 6.65981 24.406 6.54612 24.1674C6.51769 24.1023 6.38268 23.8349 6.36136 23.3433C6.34715 23.0252 6.38979 22.6927 6.51059 22.3891C6.57454 22.2228 6.65981 22.0638 6.77351 21.9192C7.00801 21.6301 7.29225 21.4999 7.32778 21.4783C7.37042 21.4566 7.41305 21.4421 7.45569 21.4204C7.4699 21.4132 7.49122 21.406 7.51964 21.3987C7.66176 21.3554 7.5836 21.377 7.72572 21.3409C8.27999 21.2397 8.75609 21.3698 9.09007 21.6445ZM8.96927 22.7289C8.8911 22.671 8.85557 22.6132 8.83426 22.5337C8.80583 22.3891 8.82004 22.3023 8.94085 22.2156C9.03322 22.1505 9.11139 22.1144 9.11139 22.0782C9.1185 21.9987 8.79872 21.9192 8.57844 22.1433C8.39368 22.3457 8.33683 22.7578 8.62818 23.0831C8.95506 23.4445 9.46669 23.524 9.54486 23.9795C9.55196 24.0445 9.56617 24.1168 9.55907 24.1819C9.55907 24.2614 9.53065 24.377 9.53065 24.3843C9.43116 24.818 9.02612 25.2373 8.35105 25.1289C8.23024 25.1072 8.14497 25.0927 8.12365 25.1289C8.07391 25.2011 8.35815 25.5337 8.884 25.5264C9.40274 25.512 9.91437 25.1216 10.0778 24.5361C10.0778 24.5289 10.1276 24.3626 10.1347 24.2108C10.1418 24.1023 10.1347 23.9867 10.1133 23.8638C9.98543 23.1048 9.2464 22.9529 8.96927 22.7289ZM26.9333 17.3216C26.7272 17.2927 26.5282 17.4951 26.4856 17.777C26.443 18.059 26.5709 18.3192 26.7769 18.3481C26.983 18.377 27.182 18.1746 27.2246 17.8927C27.2673 17.6108 27.1394 17.3505 26.9333 17.3216ZM24.6949 18.1457C24.5812 18.3554 24.7162 18.6517 25.0004 18.8036C25.2776 18.9626 25.5973 18.9192 25.711 18.7096C25.8247 18.4999 25.6897 18.2036 25.4055 18.0517C25.1284 17.8999 24.8086 17.9433 24.6949 18.1457ZM16.4945 9.73849C20.346 7.19391 24.1975 6.90476 25.5192 7.93849C25.5192 7.93126 25.4979 7.87343 25.4908 7.85897C25.1568 7.13608 24.3751 6.63006 23.6787 6.42765C23.7995 6.55777 23.9772 6.79632 24.0482 6.93367C23.5224 6.565 22.826 6.2397 22.0941 6.08789C22.0941 6.08789 22.1794 6.15295 22.1936 6.16741C22.3357 6.30476 22.5347 6.52163 22.6128 6.70958C21.9164 6.42765 21.0353 6.26861 20.282 6.41319C20.2749 6.41319 20.1897 6.43488 20.1897 6.43488C20.1897 6.43488 20.2892 6.45657 20.3105 6.46379C20.5592 6.53608 20.9145 6.69512 21.0708 6.90476C19.8202 6.68066 18.4416 6.92644 17.7026 7.35295C17.7949 7.34572 17.7949 7.34572 17.8802 7.35295C18.1502 7.36018 18.7045 7.39632 18.9319 7.54813C18.1431 7.7144 16.9991 8.06861 16.388 8.61078C16.4945 8.59632 17.1128 8.51681 17.3615 8.56018C13.979 10.5264 12.437 13.5048 12.437 13.5048C13.439 12.1746 14.7323 10.9023 16.4945 9.73849Z" fill="#9C7356"/>
<path d="M25.5899 15.293C25.5828 15.0255 25.6255 14.5773 25.8742 14.4905C26.3005 14.3387 26.869 15.452 26.8903 16.4423C26.5493 16.2689 26.1584 16.1966 25.7463 16.2327C25.6539 15.9219 25.6042 15.6183 25.5899 15.293Z" fill="#684C46"/>
</svg>