<svg xmlns:dc="http://purl.org/dc/elements/1.1/" xmlns:cc="http://creativecommons.org/ns#" xmlns:rdf="http://www.w3.org/1999/02/22-rdf-syntax-ns#" xmlns:svg="http://www.w3.org/2000/svg" xmlns="http://www.w3.org/2000/svg" xmlns:sodipodi="http://sodipodi.sourceforge.net/DTD/sodipodi-0.dtd" xmlns:inkscape="http://www.inkscape.org/namespaces/inkscape" version="1.1" viewBox="0 0 37 37" width="37" height="37" xml:space="preserve" id="svg2" inkscape:version="0.48.4 r9939" sodipodi:docname="-r3j-x8ZnM7.svg"><metadata id="metadata16"><rdf:rdf><cc:work rdf:about=""><dc:format>image/svg+xml</dc:format><dc:type rdf:resource="http://purl.org/dc/dcmitype/StillImage"/><dc:title/></cc:work></rdf:rdf></metadata><defs id="defs14"/><sodipodi:namedview pagecolor="#ffffff" bordercolor="#666666" borderopacity="1" objecttolerance="10" gridtolerance="10" guidetolerance="10" inkscape:pageopacity="0" inkscape:pageshadow="2" inkscape:window-width="1366" inkscape:window-height="705" id="namedview12" showgrid="false" inkscape:zoom="2.0724638" inkscape:cx="31.357586" inkscape:cy="19.5" inkscape:window-x="-8" inkscape:window-y="-8" inkscape:window-maximized="1" inkscape:current-layer="svg2"/>
    <style type="text/css" id="style4">
        .st0{fill:#00E676;}
        .icon_logo_white{fill:#FFFFFF;}
    </style>

    <path class="st0" d="m 9.7505146,32 0.6000004,0.3 c 2.5,1.5 5.3,2.2 8.1,2.2 l 0,0 c 8.8,0 16,-7.2 16,-16 0,-4.2 -1.7,-8.3 -4.7,-11.3 -3,-3 -7,-4.7 -11.3,-4.7 -8.8000004,0 -16.0000004,7.2 -15.9000004,16.1 0,3 0.9,5.9 2.4,8.4 l 0.4,0.6 -1.6,5.9 6,-1.5 z" id="path6" inkscape:connector-curvature="0" style="fill:#00e676"/>
    <path class="icon_logo_white" d="M 31.55,5.4 C 28.15,1.9 23.45,0 18.65,0 8.45,0 0.25,8.3 0.35,18.4 c 0,3.2 0.9,6.3 2.4,9.1 l -2.6,9.5 9.7,-2.5 c 2.7,1.5 5.7,2.2 8.7,2.2 l 0,0 c 10.1,0 18.3,-8.3 18.3,-18.4 0,-4.9 -1.9,-9.5 -5.3,-12.9 z m -12.9,28.2 0,0 c -2.7,0 -5.4,-0.7 -7.7,-2.1 l -0.6,-0.3 -5.8,1.5 1.5,-5.7 -0.4,-0.6 c -4.4,-7.1 -2.3,-16.5 4.9,-20.9 7.2,-4.4 16.5,-2.3 20.9,4.9 4.4,7.2 2.3,16.5 -4.9,20.9 -2.3,1.5 -5.1,2.3 -7.9,2.3 z m 8.8,-11.1 -1.1,-0.5 c 0,0 -1.6,-0.7 -2.6,-1.2 -0.1,0 -0.2,-0.1 -0.3,-0.1 -0.3,0 -0.5,0.1 -0.7,0.2 l 0,0 c 0,0 -0.1,0.1 -1.5,1.7 -0.1,0.2 -0.3,0.3 -0.5,0.3 h -0.1 c -0.1,0 -0.3,-0.1 -0.4,-0.2 l -0.5,-0.2 0,0 c -1.1,-0.5 -2.1,-1.1 -2.9,-1.9 -0.2,-0.2 -0.5,-0.4 -0.7,-0.6 -0.7,-0.7 -1.4,-1.5 -1.9,-2.4 l -0.1,-0.2 c -0.1,-0.1 -0.1,-0.2 -0.2,-0.4 0,-0.2 0,-0.4 0.1,-0.5 0,0 0.4,-0.5 0.7,-0.8 0.2,-0.2 0.3,-0.5 0.5,-0.7 0.2,-0.3 0.3,-0.7 0.2,-1 -0.1,-0.5 -1.3,-3.2 -1.6,-3.8 -0.2,-0.3 -0.4,-0.4 -0.7,-0.5 h -0.3 c -0.2,0 -0.5,0 -0.8,0 -0.2,0 -0.4,0.1 -0.6,0.1 l -0.1,0.1 c -0.2,0.1 -0.4,0.3 -0.6,0.4 -0.2,0.2 -0.3,0.4 -0.5,0.6 -0.7,0.9 -1.1,2 -1.1,3.1 l 0,0 c 0,0.8 0.2,1.6 0.5,2.3 l 0.1,0.3 c 0.9,1.9 2.1,3.6 3.7,5.1 l 0.4,0.4 c 0.3,0.3 0.6,0.5 0.8,0.8 2.1,1.8 4.5,3.1 7.2,3.8 0.3,0.1 0.7,0.1 1,0.2 l 0,0 c 0.3,0 0.7,0 1,0 0.5,0 1.1,-0.2 1.5,-0.4 0.3,-0.2 0.5,-0.2 0.7,-0.4 l 0.2,-0.2 c 0.2,-0.2 0.4,-0.3 0.6,-0.5 0.2,-0.2 0.4,-0.4 0.5,-0.6 0.2,-0.4 0.3,-0.9 0.4,-1.4 0,-0.2 0,-0.5 0,-0.7 0,0 -0.1,-0.1 -0.3,-0.2 z" id="path8" inkscape:connector-curvature="0" style="fill:#ffffff"/>
    
    </svg>