<svg xmlns:dc="http://purl.org/dc/elements/1.1/" xmlns:cc="http://creativecommons.org/ns#" xmlns:rdf="http://www.w3.org/1999/02/22-rdf-syntax-ns#" xmlns:svg="http://www.w3.org/2000/svg" xmlns="http://www.w3.org/2000/svg" xmlns:sodipodi="http://sodipodi.sourceforge.net/DTD/sodipodi-0.dtd" xmlns:inkscape="http://www.inkscape.org/namespaces/inkscape" width="400" height="400" id="svg2989" version="1.1" inkscape:version="0.48.4 r9939" sodipodi:docname="New document 1">
  <defs id="defs2991"/>
  <sodipodi:namedview id="base" pagecolor="#ffffff" bordercolor="#666666" borderopacity="1.0" inkscape:pageopacity="0.0" inkscape:pageshadow="2" inkscape:zoom="1" inkscape:cx="84.631696" inkscape:cy="215.90604" inkscape:document-units="px" inkscape:current-layer="layer1" showgrid="false" inkscape:window-width="1366" inkscape:window-height="705" inkscape:window-x="-8" inkscape:window-y="-8" inkscape:window-maximized="1"/>
  <metadata id="metadata2994">
    <rdf:rdf>
      <cc:work rdf:about="">
        <dc:format>image/svg+xml</dc:format>
        <dc:type rdf:resource="http://purl.org/dc/dcmitype/StillImage"/>
        <dc:title/>
      </cc:work>
    </rdf:rdf>
  </metadata>
  <g inkscape:label="Layer 1" inkscape:groupmode="layer" id="layer1" transform="translate(0,-652.36218)">
    <path style="fill:#9b5c8f" inkscape:connector-curvature="0" d="M 41.195015,736.28758 H 358.64618 c 20.09111,0 36.35381,16.2627 36.35381,36.3538 v 121.1758 c 0,20.0912 -16.2627,36.3539 -36.35381,36.3539 H 244.80416 l 15.62591,38.2657 -68.7208,-38.2657 H 41.353455 c -20.08957,0 -36.3522697,-16.2627 -36.3522697,-36.3539 v -121.1758 c -0.16,-19.9312 16.1011997,-36.3538 36.1938297,-36.3538 z" id="path4"/>
    <path style="fill:#ffffff" inkscape:connector-curvature="0" d="m 27.208325,769.42238 c 2.21965,-3.0134 5.54836,-4.5978 9.98766,-4.9147 8.08642,-0.6352 12.68416,3.1688 13.79322,11.4137 4.91461,33.1347 10.30454,61.1965 16.01134,84.1837 l 34.719185,-66.1097 c 3.1718,-6.0252 7.13578,-9.1954 11.89196,-9.5123 6.97583,-0.4753 11.25517,3.9624 12.9995,13.3164 3.96399,21.0843 9.03704,39 15.06072,54.2192 4.12243,-40.2676 11.09825,-69.28 20.92749,-87.1941 2.37656,-4.4393 5.86523,-6.6589 10.46298,-6.9773 3.64711,-0.3154 6.97581,0.7937 9.98766,3.1718 3.01183,2.3781 4.59774,5.3899 4.91461,9.037 0.15843,2.8534 -0.31687,5.2315 -1.58438,7.6096 -6.18363,11.4151 -11.25822,30.5983 -15.37911,57.231 -3.96247,25.8421 -5.38993,45.9774 -4.4393,60.4044 0.3184,3.9609 -0.31688,7.4496 -1.90126,10.463 -1.9043,3.4871 -4.75617,5.3899 -8.40328,5.7068 -4.12243,0.3168 -8.40177,-1.5844 -12.5242,-5.8653 -14.74384,-15.0622 -26.47584,-37.5741 -35.03604,-67.5371 -10.306075,20.2922 -17.915645,35.5114 -22.830265,45.6575 -9.35391,17.9156 -17.28037,27.1111 -23.93932,27.5864 -4.28086,0.3169 -7.92645,-3.3302 -11.09673,-10.9383 -8.08489,-20.769 -16.80505,-60.8796 -26.15748,-120.3303 -0.6352,-4.1224 0.31539,-7.7696 2.53504,-10.6214 z m 340.695785,24.8899 c -5.7068,-9.9877 -14.11009,-16.0113 -25.36526,-18.3909 -3.01336,-0.6338 -5.86524,-0.9507 -8.56172,-0.9507 -15.21915,0 -27.5849,7.9265 -37.2557,23.7809 -8.24485,13.4748 -12.36575,28.3771 -12.36575,44.7068 0,12.2074 2.53652,22.6703 7.60957,31.3905 5.70681,9.9877 14.11009,16.0113 25.36525,18.3894 3.01185,0.6353 5.86526,0.9522 8.56174,0.9522 15.37758,0 27.74335,-7.9265 37.2557,-23.7809 8.24332,-13.6348 12.36575,-28.537 12.36575,-44.8653 0.15843,-12.3657 -2.53652,-22.6718 -7.60958,-31.232 z m -19.97532,43.9147 c -2.21966,10.4629 -6.18365,18.231 -12.05042,23.4624 -4.59621,4.1225 -8.87707,5.8653 -12.83953,5.0731 -3.80555,-0.7922 -6.97736,-4.1209 -9.35392,-10.3045 -1.9043,-4.9147 -2.8534,-9.8293 -2.8534,-14.427 0,-3.9625 0.31688,-7.9265 1.10906,-11.5721 1.42746,-6.5005 4.12243,-12.8425 8.40177,-18.8662 5.23301,-7.7696 10.78138,-10.9383 16.48818,-9.8292 3.80555,0.7921 6.97734,4.1224 9.35392,10.3045 1.90277,4.9146 2.8534,9.8292 2.8534,14.427 0,4.1224 -0.31688,8.0848 -1.10906,11.7304 z m -79.26911,-43.9147 c -5.7068,-9.9877 -14.26852,-16.0113 -25.36525,-18.3909 -3.01185,-0.6338 -5.86525,-0.9507 -8.56173,-0.9507 -15.21916,0 -27.58491,7.9265 -37.2557,23.7809 -8.24333,13.4748 -12.36575,28.3771 -12.36575,44.7068 0,12.2074 2.53653,22.6703 7.60957,31.3905 5.70681,9.9877 14.11009,16.0113 25.36527,18.3894 3.01336,0.6353 5.86523,0.9522 8.56172,0.9522 15.3776,0 27.74335,-7.9265 37.2557,-23.7809 8.24485,-13.6348 12.36575,-28.537 12.36575,-44.8653 0,-12.3657 -2.53652,-22.6718 -7.60958,-31.232 z m -20.13376,43.9147 c -2.21965,10.4629 -6.18365,18.231 -12.04888,23.4624 -4.59774,4.1225 -8.8786,5.8653 -12.8426,5.0731 -3.80401,-0.7922 -6.9743,-4.1209 -9.35391,-10.3045 -1.90125,-4.9147 -2.85188,-9.8293 -2.85188,-14.427 0,-3.9625 0.31689,-7.9265 1.10907,-11.5721 1.42745,-6.5005 4.12242,-12.8425 8.40328,-18.8662 5.23149,-7.7696 10.77986,-10.9383 16.48667,-9.8292 3.80554,0.7921 6.97734,4.1224 9.35391,10.3045 1.9043,4.9146 2.8534,9.8292 2.8534,14.427 0.15997,4.1224 -0.31688,8.0848 -1.10906,11.7304 z" id="path6"/>
  </g>
</svg>